<svg xmlns="http://www.w3.org/2000/svg" xmlns:xlink="http://www.w3.org/1999/xlink" width="500" zoomAndPan="magnify" viewBox="0 0 375 374.999991" height="500" preserveAspectRatio="xMidYMid meet" version="1.0"><defs><g/><clipPath id="821dc26c54"><path d="M 82 147.050781 L 175.429688 147.050781 L 175.429688 188 L 82 188 Z M 82 147.050781 " clip-rule="nonzero"/></clipPath><clipPath id="cf6a4ae07c"><path d="M 59.179688 174 L 152 174 L 152 215 L 59.179688 215 Z M 59.179688 174 " clip-rule="nonzero"/></clipPath><clipPath id="f29ff85648"><path d="M 82 216 L 105 216 L 105 228.050781 L 82 228.050781 Z M 82 216 " clip-rule="nonzero"/></clipPath></defs><g clip-path="url(#821dc26c54)"><path fill="#38b6ff" d="M 111.078125 174.214844 C 109.730469 176.59375 108.523438 178.734375 107.304688 180.863281 C 106.183594 182.824219 105.03125 184.769531 103.921875 186.734375 C 103.589844 187.320312 103.1875 187.582031 102.476562 187.574219 C 98.628906 187.535156 94.78125 187.578125 90.9375 187.519531 C 90.492188 187.511719 89.859375 187.207031 89.644531 186.84375 C 87.285156 182.835938 84.984375 178.792969 82.707031 174.734375 C 82.527344 174.414062 82.507812 173.816406 82.6875 173.5 C 87.625 164.859375 92.582031 156.238281 97.585938 147.640625 C 97.78125 147.300781 98.460938 147.078125 98.917969 147.074219 C 104.960938 147.035156 111 147.050781 117.042969 147.050781 C 135.804688 147.050781 154.566406 147.054688 173.332031 147.054688 C 173.925781 147.054688 174.527344 147.054688 175.371094 147.054688 C 174.769531 148.183594 174.292969 149.128906 173.761719 150.042969 C 171.90625 153.253906 170 156.433594 168.191406 159.671875 C 167.777344 160.417969 167.3125 160.628906 166.519531 160.625 C 156.328125 160.605469 146.136719 160.617188 135.945312 160.617188 C 126.195312 160.621094 116.441406 160.628906 106.683594 160.605469 C 105.875 160.601562 105.433594 160.847656 105.027344 161.578125 C 102.871094 165.433594 100.640625 169.242188 98.441406 173.070312 C 97.902344 174.007812 97.972656 174.136719 99.039062 174.136719 C 102.414062 174.132812 105.789062 174.113281 109.164062 174.113281 C 109.71875 174.117188 110.277344 174.175781 111.078125 174.214844 Z M 111.078125 174.214844 " fill-opacity="1" fill-rule="nonzero"/></g><g clip-path="url(#cf6a4ae07c)"><path fill="#38b6ff" d="M 123.378906 187.453125 C 124.355469 185.714844 125.234375 184.128906 126.132812 182.566406 C 127.632812 179.96875 129.128906 177.371094 130.6875 174.8125 C 130.894531 174.464844 131.460938 174.144531 131.867188 174.140625 C 135.710938 174.09375 139.558594 174.125 143.40625 174.09375 C 144.136719 174.09375 144.5625 174.320312 144.925781 174.972656 C 147.105469 178.847656 149.320312 182.707031 151.554688 186.550781 C 151.972656 187.265625 152.015625 187.792969 151.566406 188.570312 C 146.707031 196.933594 141.890625 205.316406 137.113281 213.726562 C 136.671875 214.5 136.148438 214.628906 135.394531 214.628906 C 125.203125 214.613281 115.015625 214.609375 104.824219 214.609375 C 89.90625 214.613281 74.992188 214.621094 60.078125 214.625 C 59.851562 214.625 59.621094 214.578125 59.25 214.535156 C 59.394531 214.128906 59.464844 213.773438 59.636719 213.476562 C 61.820312 209.636719 64.035156 205.8125 66.199219 201.964844 C 66.582031 201.28125 67.054688 201.0625 67.816406 201.0625 C 87.761719 201.078125 107.707031 201.066406 127.644531 201.089844 C 128.527344 201.089844 128.992188 200.84375 129.441406 200.039062 C 131.570312 196.207031 133.792969 192.433594 135.980469 188.632812 C 136.480469 187.761719 136.398438 187.585938 135.417969 187.582031 C 131.839844 187.566406 128.265625 187.570312 124.6875 187.558594 C 124.308594 187.554688 123.925781 187.5 123.378906 187.453125 Z M 123.378906 187.453125 " fill-opacity="1" fill-rule="nonzero"/></g><path fill="#38b6ff" d="M 135.519531 162.441406 C 134.921875 163.542969 134.46875 164.417969 133.976562 165.273438 C 129.765625 172.613281 125.554688 179.949219 121.335938 187.28125 C 119.214844 190.964844 117.082031 194.636719 114.972656 198.324219 C 114.59375 198.988281 114.089844 199.234375 113.332031 199.230469 C 108.914062 199.210938 104.492188 199.226562 100.074219 199.222656 C 99.164062 199.222656 99.042969 198.9375 99.53125 198.089844 C 103.261719 191.605469 106.996094 185.121094 110.71875 178.632812 C 113.554688 173.699219 116.40625 168.769531 119.203125 163.816406 C 119.761719 162.820312 120.394531 162.390625 121.589844 162.410156 C 126.105469 162.488281 130.621094 162.441406 135.519531 162.441406 Z M 135.519531 162.441406 " fill-opacity="1" fill-rule="nonzero"/><g clip-path="url(#f29ff85648)"><path fill="#38b6ff" d="M 104.453125 216.503906 C 103.425781 218.304688 102.492188 219.933594 101.558594 221.5625 C 100.507812 223.40625 99.445312 225.238281 98.421875 227.09375 C 98.082031 227.722656 97.65625 228.046875 96.917969 228.046875 C 92.332031 228.03125 87.746094 228.042969 83.160156 228.039062 C 82.980469 228.039062 82.792969 227.964844 82.4375 227.886719 C 83.007812 226.859375 83.507812 225.925781 84.035156 225.007812 C 85.546875 222.378906 87.046875 219.742188 88.609375 217.144531 C 88.824219 216.792969 89.378906 216.4375 89.777344 216.429688 C 94.394531 216.378906 99.015625 216.394531 103.632812 216.398438 C 103.824219 216.398438 104.015625 216.449219 104.453125 216.503906 Z M 104.453125 216.503906 " fill-opacity="1" fill-rule="nonzero"/></g><g fill="#38b6ff" fill-opacity="1"><g transform="translate(175.581029, 197.624987)"><g><path d="M 14.484375 -11.328125 L 21.53125 0 L 14.90625 0 L 10.078125 -7.5625 L 7.34375 -5.09375 L 6.328125 0 L 0.484375 0 L 4.671875 -20.984375 L 10.53125 -20.984375 L 8.8125 -12.40625 L 18.296875 -20.984375 L 25.28125 -20.984375 Z M 14.484375 -11.328125 "/></g></g></g><g fill="#38b6ff" fill-opacity="1"><g transform="translate(198.123393, 197.624987)"><g><path d="M 10.703125 0.421875 C 8.878906 0.421875 7.304688 0.117188 5.984375 -0.484375 C 4.671875 -1.097656 3.664062 -1.972656 2.96875 -3.109375 C 2.269531 -4.253906 1.921875 -5.597656 1.921875 -7.140625 C 1.921875 -7.773438 2 -8.515625 2.15625 -9.359375 L 4.5 -20.984375 L 10.4375 -20.984375 L 8.125 -9.4375 C 8.007812 -8.84375 7.953125 -8.296875 7.953125 -7.796875 C 7.953125 -5.597656 9.109375 -4.5 11.421875 -4.5 C 12.679688 -4.5 13.675781 -4.882812 14.40625 -5.65625 C 15.132812 -6.425781 15.679688 -7.6875 16.046875 -9.4375 L 18.34375 -20.984375 L 24.203125 -20.984375 L 21.828125 -9.078125 C 20.546875 -2.742188 16.835938 0.421875 10.703125 0.421875 Z M 10.703125 0.421875 "/></g></g></g><g fill="#38b6ff" fill-opacity="1"><g transform="translate(221.684958, 197.624987)"><g><path d="M 24.625 -20.984375 L 20.421875 0 L 15.53125 0 L 8.609375 -11.515625 L 6.296875 0 L 0.484375 0 L 4.671875 -20.984375 L 9.5625 -20.984375 L 16.515625 -9.5 L 18.796875 -20.984375 Z M 24.625 -20.984375 "/></g></g></g><g fill="#38b6ff" fill-opacity="1"><g transform="translate(245.846055, 197.624987)"><g><path d="M 15.59375 -4.078125 L 6.65625 -4.078125 L 4.234375 0 L -2.03125 0 L 11.421875 -20.984375 L 17.265625 -20.984375 L 22.34375 0 L 16.4375 0 Z M 14.6875 -8.453125 L 13.28125 -15.265625 L 9.265625 -8.453125 Z M 14.6875 -8.453125 "/></g></g></g><g fill="#38b6ff" fill-opacity="1"><g transform="translate(269.407619, 197.624987)"><g><path d="M 4.671875 -20.984375 L 10.609375 -20.984375 L 7.375 -4.703125 L 17.390625 -4.703125 L 16.4375 0 L 0.484375 0 Z M 4.671875 -20.984375 "/></g></g></g></svg>